<?xml version="1.0" encoding="utf-8"?><!-- Uploaded to: SVG Repo, www.svgrepo.com, Generator: SVG Repo Mixer Tools -->
<svg width="800px" height="800px" viewBox="0 0 400 400" fill="none" xmlns="http://www.w3.org/2000/svg">
<path d="M192.369 286.7C108.006 254.65 135.171 179.453 161.579 109.322C163.416 104.448 182.065 58.1951 193.101 66.9873C210.429 80.7905 187.115 164.966 182.107 181.587" stroke="#000000" stroke-opacity="0.9" stroke-width="16" stroke-linecap="round" stroke-linejoin="round"/>
<path d="M171.811 183.589C214.587 175.783 229.069 215.072 179.09 215.072C175.833 215.072 185.789 216.907 187.823 219.466C191.792 224.457 189.849 232.046 189.28 237.768" stroke="#000000" stroke-opacity="0.9" stroke-width="16" stroke-linecap="round" stroke-linejoin="round"/>
<path d="M204.43 170.583C238.059 25.3762 263.197 225.888 216.292 200.359" stroke="#000000" stroke-opacity="0.9" stroke-width="16" stroke-linecap="round" stroke-linejoin="round"/>
<path d="M247.088 127.321C282.148 93.7269 287.494 206.944 250.71 203.829" stroke="#000000" stroke-opacity="0.9" stroke-width="16" stroke-linecap="round" stroke-linejoin="round"/>
<path d="M167.417 84.3771C107.845 47.6044 120.238 86.3084 141.946 113.556" stroke="#000000" stroke-opacity="0.9" stroke-width="16" stroke-linecap="round" stroke-linejoin="round"/>
<path d="M270.628 210.166C282.72 250.353 253.156 268.426 232.083 294.479C227.137 300.593 231.119 323.791 229.863 331.868" stroke="#000000" stroke-opacity="0.9" stroke-width="16" stroke-linecap="round" stroke-linejoin="round"/>
<path d="M169.303 290.464C165.545 304.303 164.083 318.905 163.029 333.122" stroke="#000000" stroke-opacity="0.9" stroke-width="16" stroke-linecap="round" stroke-linejoin="round"/>
<path d="M200.666 104.774C209.449 111.047 214.227 114.199 218.231 117.32" stroke="#000000" stroke-opacity="0.9" stroke-width="16" stroke-linecap="round" stroke-linejoin="round"/>
</svg>