<?xml version="1.0" encoding="utf-8"?><!-- Uploaded to: SVG Repo, www.svgrepo.com, Generator: SVG Repo Mixer Tools -->
<svg width="800px" height="800px" viewBox="0 -4.5 409 409" fill="none" xmlns="http://www.w3.org/2000/svg">
<path opacity="0.502139" d="M77.8672 190.415C91.6209 190.415 115.44 184.607 124.125 190.415C126.438 191.962 125.062 199.398 125.062 201.712C125.062 214.194 133.946 288.738 129.76 293.982C122.699 302.827 95.3003 306.115 84.6806 309.988" stroke="#000000" stroke-opacity="0.9" stroke-width="16" stroke-linecap="round" stroke-linejoin="round"/>
<path d="M134.7 194.196C150.081 188.703 163.498 187.198 177.492 185.289" stroke="#000000" stroke-opacity="0.9" stroke-width="16" stroke-linecap="round" stroke-linejoin="round"/>
<path d="M179.979 185.289C185.002 184 188.419 158.428 192.502 139.5C198.002 114 196.002 91.1893 214.002 91.9996C234.502 92.9224 228.261 162.907 245.502 160.826C264.774 158.5 278.633 154.347 311.028 160.826C343.422 167.305 321.254 184.871 321.254 185.989C321.254 191.302 332.393 187.889 331.198 206.148C330.554 215.985 327.683 221.169 319.252 224.505C316.067 225.766 326.002 237 324.93 243.453C324.93 253.379 316.127 256.331 316.127 260.772C316.127 264.808 319.352 268.944 316.127 276.229C311.269 287.203 279.002 280 260.396 277.113" stroke="#000000" stroke-opacity="0.9" stroke-width="16" stroke-linecap="round" stroke-linejoin="round"/>
<path d="M259.397 276.905C219.74 284.535 179.792 282.064 139.787 288.357" stroke="#000000" stroke-opacity="0.9" stroke-width="16" stroke-linecap="round" stroke-linejoin="round"/>
<path d="M249 252C258.961 254.922 268.073 256.698 276.336 257.328C288.73 258.273 304.085 258.532 315 256.001" stroke="#000000" stroke-opacity="0.9" stroke-width="16" stroke-linecap="round" stroke-linejoin="round"/>
<path d="M255 221C278.489 226.16 301.979 228.037 324 223.194" stroke="#000000" stroke-opacity="0.9" stroke-width="16" stroke-linecap="round" stroke-linejoin="round"/>
<path d="M256 188C279.739 192.331 297 194.426 319.5 188" stroke="#000000" stroke-opacity="0.9" stroke-width="16" stroke-linecap="round" stroke-linejoin="round"/>
</svg>